Coordinates
version=1
nRows=6
nColumns=36
inDegrees=yes

Units are S.I. units (second, meters, Newtons, ...)
If the header above contains a line with 'inDegrees', this indicates whether rotational values are in degrees (yes) or radians (no).

endheader
time	pelvis_tilt	pelvis_list	pelvis_rotation	pelvis_tx	pelvis_ty	pelvis_tz	hip_flexion_r	hip_adduction_r	hip_rotation_r	knee_angle_r	knee_angle_r_beta	ankle_angle_r	subtalar_angle_r	mtp_angle_r	hip_flexion_l	hip_adduction_l	hip_rotation_l	knee_angle_l	knee_angle_l_beta	ankle_angle_l	subtalar_angle_l	mtp_angle_l	lumbar_extension	lumbar_bending	lumbar_rotation	arm_flex_r	arm_add_r	arm_rot_r	elbow_flex_r	pro_sup_r	arm_flex_l	arm_add_l	arm_rot_l	elbow_flex_l	pro_sup_l
      4.95000000	      2.48067590	      4.77339623	     -6.36126093	      0.16315039	      0.86292907	      0.14373999	      8.26419903	      3.16018555	    -11.72489006	     17.38736920	      0.30346684	      8.97128794	      0.37360778	     -7.49999987	     26.04381672	      1.50222045	      1.84900994	     19.10665793	      0.33347409	     -4.65014779	     -4.85071124	     -7.49999987	     -1.80598177	     -1.22207170	      1.31435489	     42.57495653	      7.24353773	     65.28998122	    127.66168341	     81.75618435	     28.80801357	      3.70563551	     59.40638367	    126.49434179	     70.34416461
      4.96666670	      2.57326980	      4.79870958	     -6.31766053	      0.16478914	      0.86117370	      0.14389893	      7.89764261	      3.17889603	    -11.72899508	     17.32187550	      0.30232376	      9.60771563	      1.04918279	     -7.49999987	     26.34086963	      1.53718292	      1.81631809	     19.10834885	      0.33350360	     -4.39257196	     -4.81638794	     -7.49999987	     -1.62800616	     -1.15458697	      1.49863799	     42.31465215	      7.19300273	     64.80216483	    127.66181420	     84.32630505	     28.73177301	      3.79440029	     59.21139335	    126.52589454	     71.84292974
      4.98333330	      2.66542654	      4.73233107	     -6.37654108	      0.16502731	      0.86063646	      0.14327977	      7.78817604	      3.23728268	    -11.56486472	     17.44332339	      0.30444343	      9.95758758	      1.19292118	     -7.49999987	     26.61511884	      1.38775923	      1.64195274	     18.89636699	      0.32980382	     -4.06847999	     -4.59698444	     -7.49999987	     -1.51687426	     -0.89349670	      1.60733136	     42.12589167	      7.09181344	     64.61744884	    127.68220787	     83.40324945	     28.72275272	      4.05152544	     59.12957268	    126.56915280	     71.21450294
      5.00000000	      2.77647130	      4.66165583	     -6.61868049	      0.16477743	      0.85607290	      0.14352682	      7.65638561	      3.30386992	    -11.62120202	     17.87096762	      0.31190723	     10.28478823	      1.02830334	     -7.49999987	     27.05968721	      1.18912570	      1.76320622	     18.84412663	      0.32889205	     -3.73746040	     -4.61146169	     -7.49999987	     -1.48367115	     -0.68144494	      1.65262248	     42.33145118	      7.03806309	     64.38134840	    127.84969693	     83.44316938	     28.94202409	      4.34129650	     58.97911589	    126.69535073	     71.27644048
      5.01666670	      2.60272628	      4.65597670	     -6.63009777	      0.16508956	      0.85448157	      0.14476818	      7.89867154	      3.39689163	    -11.30419190	     18.07438955	      0.31545761	     11.21058643	      0.82935759	     -7.49999987	     27.84129751	      0.99321951	      1.81044434	     18.89808941	      0.32983388	     -3.35473565	     -4.45750390	     -7.49999987	     -1.13836007	     -0.58975063	      1.78667861	     42.34594303	      6.98504211	     64.15938840	    128.10642244	     82.52159426	     29.22609742	      4.70067784	     59.16817407	    126.64796577	     70.73580663
      5.03333330	      2.59258107	      4.53474234	     -6.63029007	      0.16616728	      0.85426653	      0.14442339	      7.94743024	      3.56099235	    -10.91657120	     18.21818150	      0.31796725	     11.98509450	      0.81611265	     -7.49999987	     28.27668634	      0.72879198	      1.90145313	     18.76936657	      0.32758725	     -2.92390330	     -4.09191220	     -7.49999987	     -1.06838600	     -0.47808611	      1.94891053	     42.27630257	      6.83781927	     64.07543168	    128.39563495	     81.93330569	     29.39690885	      5.12836059	     59.66665293	    126.48699696	     70.40242132
